# xmcd
# 
# Track frame offsets:
#     150
#     15552
#     35199
#     45245
# 
# Disc length: 959
# 
# Revision: 0
# Processed by: cddbd v1.5.2PL0 Copyright (c) Steve Scherf et al.
# Submitted via: fre:ac v1.0.17
# 
DISCID=2703bd04
DTITLE=Orchid - Through the Devil's Doorway
DYEAR=2009
DGENRE=Rock
TTITLE0=Into the Sun
TTITLE1=Eastern Woman
TTITLE2=Son of Misery
TTITLE3=No One Makes a Sound
EXTD=
EXTT0=
EXTT1=
EXTT2=
EXTT3=
PLAYORDER=
